<!DOCTYPE svg PUBLIC "-//W3C//DTD SVG 1.1//EN" "http://www.w3.org/Graphics/SVG/1.1/DTD/svg11.dtd">
<!-- Uploaded to: SVG Repo, www.svgrepo.com, Transformed by: SVG Repo Mixer Tools -->
<svg fill="#fbff00" width="64px" height="64px" viewBox="0 -8 72 72" id="Layer_1" data-name="Layer 1" xmlns="http://www.w3.org/2000/svg" stroke="#fbff00">
<g id="SVGRepo_bgCarrier" stroke-width="0"/>
<g id="SVGRepo_tracerCarrier" stroke-linecap="round" stroke-linejoin="round"/>
<g id="SVGRepo_iconCarrier">
<title>hard-hat</title>
<path d="M30,12V24H28V16.63a23.48,23.48,0,0,0-3.9,1.83A23,23,0,0,0,13,36H58.87c.07.66.11,1.33.13,2A22.8,22.8,0,0,0,44,16.69V24H42V12H36.93v6h-2V12ZM59,38H10a2,2,0,0,0-2,2v2a2,2,0,0,0,2,2H62a2,2,0,0,0,2-2V40a2,2,0,0,0-2-2ZM12.88,38c0-.3,0-.6,0-.9C12.9,37.4,12.89,37.7,12.88,38Zm23-12a4,4,0,1,1-4,4A4,4,0,0,1,35.93,26Z"/>
</g>
</svg>